<svg version="1.1" id="Layer_1" xmlns="http://www.w3.org/2000/svg" xmlns:xlink="http://www.w3.org/1999/xlink" x="0px" y="0px"
	 width="100%" viewBox="0 0 1473 800" enable-background="new 0 0 1473 800" xml:space="preserve">
<path fill="#FCFDFD" opacity="1.000000" stroke="none" 
	d="
M890.000000,801.000000 
	C593.333313,801.000000 297.166656,801.000000 1.000000,801.000000 
	C1.000000,534.333313 1.000000,267.666656 1.000000,1.000000 
	C492.000000,1.000000 983.000000,1.000000 1474.000000,1.000000 
	C1474.000000,267.666656 1474.000000,534.333313 1474.000000,801.000000 
	C1279.500000,801.000000 1085.000000,801.000000 890.000000,801.000000 
M302.202911,763.020264 
	C302.137848,714.194336 302.071960,665.368408 302.013733,616.542480 
	C302.012543,615.545349 301.962067,614.517883 302.171722,613.556213 
	C303.079681,609.391113 305.165375,606.959229 310.731384,608.815430 
	C310.731384,662.020569 310.731384,715.396118 310.731384,768.796875 
	C317.541199,768.796875 323.465118,768.796875 329.958069,768.796875 
	C329.958069,749.498840 329.958069,730.452637 329.958069,711.097778 
	C336.164825,711.097778 341.819977,710.824097 347.440552,711.149048 
	C364.390533,712.128662 380.504944,709.697937 395.611542,701.329346 
	C399.530090,699.158630 402.724701,696.883728 405.110657,693.080994 
	C415.508667,676.509033 422.885315,659.293396 418.998383,638.995911 
	C415.622345,621.366211 407.822418,606.745728 392.242859,596.956665 
	C390.458923,595.835815 388.862335,594.416626 386.814575,592.858582 
	C389.674469,590.385559 392.329620,588.403809 394.594666,586.047119 
	C397.108154,583.432007 400.083649,580.820862 401.443237,577.609070 
	C409.355042,558.919189 411.612885,540.069458 403.113373,520.660645 
	C397.665283,508.219757 390.199890,498.543579 377.132019,493.284027 
	C367.667511,489.474762 358.105896,487.420502 348.011108,487.369385 
	C342.102020,487.339447 336.192627,487.363922 329.517883,487.363922 
	C329.517883,366.195953 329.517883,245.788254 329.517883,125.565933 
	C322.812256,125.565933 316.901031,125.565933 310.643677,125.565933 
	C310.643677,279.064362 310.643677,432.095673 310.643677,584.976562 
	C307.663422,584.976562 305.061432,584.976562 301.449219,584.976562 
	C301.449219,431.922302 301.449219,279.181488 301.449219,125.982132 
	C295.380524,125.982132 290.332977,125.982132 284.693726,125.982132 
	C284.693726,279.095947 284.693726,432.114868 284.693726,584.908813 
	C281.738129,584.908813 279.301666,584.908813 276.499939,584.908813 
	C276.499939,582.913940 276.508911,581.276611 276.498596,579.639343 
	C276.354645,556.809753 276.347595,533.977600 275.924683,511.153137 
	C275.854187,507.350067 274.578156,503.270508 272.828339,499.845398 
	C260.490112,475.694611 247.683502,451.782501 235.409622,427.599701 
	C219.148361,395.560699 203.224274,363.350433 187.179626,331.201630 
	C180.056580,316.929108 173.046875,302.599426 165.808792,288.385834 
	C165.173386,287.138092 163.228928,285.804993 161.874695,285.786102 
	C133.051773,285.383698 104.226318,285.161591 75.401207,284.921600 
	C74.609451,284.915009 73.816116,285.099518 72.720345,285.231415 
	C73.024445,286.388184 73.127350,287.374023 73.528946,288.217651 
	C79.103653,299.928436 84.506386,311.727783 90.375404,323.290131 
	C98.953636,340.189850 108.035606,356.833862 116.614906,373.733063 
	C135.521484,410.974396 154.218842,448.321869 173.071548,485.590668 
	C177.045532,493.446594 181.491409,501.064941 185.424484,508.940277 
	C199.097870,536.318848 212.505234,563.830994 226.285156,591.155396 
	C234.592148,607.627563 243.160126,623.980713 252.128952,640.098999 
	C254.907455,645.092346 256.723297,649.890503 256.670258,655.568909 
	C256.513031,672.399536 256.503418,689.231628 256.438019,706.063110 
	C256.431213,707.818787 256.437103,709.574463 256.437103,711.605591 
	C262.944885,711.605591 268.713776,711.605591 274.777802,711.605591 
	C274.891357,709.836975 275.074921,708.216919 275.087708,706.595459 
	C275.325592,676.439026 275.535828,646.282349 275.770020,616.125854 
	C275.829224,608.501526 276.144012,608.279968 284.780365,609.697754 
	C284.780365,662.624634 284.780365,715.655701 284.780365,768.706055 
	C290.953644,768.706055 296.522461,768.706055 302.218658,768.706055 
	C302.218658,766.874390 302.218658,765.391113 302.202911,763.020264 
M423.665741,474.604614 
	C428.245697,477.163177 432.825684,479.721771 437.705505,482.447845 
	C470.999023,416.373596 503.946472,350.986084 536.968933,285.449738 
	C536.445923,285.379578 535.826355,285.221527 535.207520,285.224243 
	C509.724426,285.335052 484.221405,286.091217 458.767853,285.284515 
	C448.037964,284.944458 442.932526,289.954102 438.922302,298.251801 
	C438.271118,299.599182 437.627777,300.950836 436.951599,302.285706 
	C423.147064,329.538147 409.297516,356.767944 395.542877,384.045532 
	C384.237579,406.465729 372.950989,428.896454 361.870392,451.427917 
	C359.316681,456.620697 357.534576,462.208374 355.648834,467.700653 
	C355.290405,468.744659 355.696716,470.866272 356.465881,471.348053 
	C360.940582,474.150818 365.628967,476.612457 370.663300,479.422852 
	C373.120850,474.921600 375.477753,470.932556 377.531189,466.792938 
	C398.674377,424.169403 419.781189,381.527740 440.866791,338.875641 
	C445.658447,329.182983 450.249207,319.390015 455.139099,309.747986 
	C455.906403,308.235077 457.761322,306.253265 459.143311,306.229431 
	C473.922272,305.974854 488.707245,306.071136 504.002502,306.071136 
	C503.304047,307.942108 502.898712,309.344757 502.277130,310.643921 
	C496.034943,323.691284 490.029449,336.861725 483.415466,349.718811 
	C476.338165,363.476471 468.473297,376.827637 461.321899,390.548920 
	C451.505737,409.383179 441.890442,428.326172 432.492706,447.372406 
	C428.755341,454.946930 425.772980,462.899139 422.608948,470.744812 
	C422.222595,471.702789 422.845581,473.067780 423.665741,474.604614 
M464.567932,595.339722 
	C484.336945,596.058716 504.168427,597.605713 523.549866,591.981934 
	C526.273804,591.191528 529.345581,589.897644 531.130066,587.853516 
	C541.069946,576.467712 540.808044,547.687500 524.553955,541.768677 
	C523.742371,541.473206 523.148193,540.580566 523.237793,540.659729 
	C526.349854,536.466492 530.639771,533.002197 531.778503,528.703186 
	C534.789795,517.334106 533.831238,506.618652 524.041138,497.753174 
	C517.565247,491.888794 511.122864,488.001831 502.078369,488.234161 
	C488.438782,488.584595 474.780090,488.182404 461.129425,488.125977 
	C459.521362,488.119324 457.912598,488.275177 455.870544,488.377380 
	C455.870544,524.303528 455.870544,559.839294 455.870544,595.343018 
	C458.642334,595.343018 461.117340,595.343018 464.567932,595.339722 
M992.036438,551.468079 
	C988.642334,547.601013 985.248291,543.733887 981.672180,539.659424 
	C987.458069,536.998047 989.463806,531.073364 990.764832,524.503357 
	C994.414246,506.073914 980.154846,487.619293 961.823120,488.135498 
	C948.685974,488.505402 935.526794,488.089813 922.377441,488.028564 
	C920.113708,488.018005 917.849915,488.027100 915.486572,488.027100 
	C915.486572,524.148926 915.486572,559.500549 915.486572,595.352661 
	C919.403503,595.352661 922.868835,595.274780 926.329834,595.365601 
	C944.789185,595.849976 963.201477,596.300598 981.481384,592.404297 
	C985.555847,591.535889 988.160400,590.253662 989.815369,586.646912 
	C992.282532,581.270447 995.584412,576.129211 997.100098,570.502441 
	C998.875183,563.912781 995.487732,557.876160 992.036438,551.468079 
M1341.912598,568.564514 
	C1352.761230,550.122131 1349.036499,513.844666 1328.126953,500.065613 
	C1317.925537,493.342957 1308.127563,487.401520 1295.325928,488.282257 
	C1287.698853,488.807068 1280.005615,488.371521 1272.342163,488.369446 
	C1266.718506,488.367920 1261.094849,488.369171 1255.710449,488.369171 
	C1255.710449,523.953735 1255.710449,558.999451 1255.710449,594.240479 
	C1258.697021,594.559875 1260.990479,594.942322 1263.294922,595.029602 
	C1279.783203,595.654114 1296.110107,594.742065 1312.554199,592.627014 
	C1327.801758,590.665833 1334.926025,580.759399 1341.912598,568.564514 
M739.819214,488.373077 
	C738.346436,488.442871 736.873657,488.512665 735.113525,488.596039 
	C735.113525,524.488464 735.113525,560.121704 735.113525,595.777222 
	C760.718445,595.777222 785.118774,595.777222 809.750000,595.777222 
	C809.750000,590.240723 809.750000,585.004883 809.750000,579.276062 
	C791.455261,579.276062 773.412170,579.276062 755.345215,579.276062 
	C755.345215,569.404236 755.345215,560.030701 755.345215,550.240479 
	C770.484070,550.240479 785.246155,550.240479 800.078369,550.240479 
	C800.078369,545.079224 800.078369,540.352966 800.078369,535.225464 
	C784.943787,535.225464 770.190369,535.225464 755.356262,535.225464 
	C755.356262,525.784241 755.356262,516.758484 755.356262,507.591125 
	C772.673096,507.591125 789.599548,507.591125 806.592773,507.591125 
	C806.592773,500.954865 806.592773,494.598938 806.592773,488.366547 
	C784.366150,488.366547 762.559937,488.366547 739.819214,488.373077 
M1082.772461,488.012054 
	C1081.970947,489.494598 1080.514771,490.958923 1080.472778,492.462677 
	C1080.166382,503.447693 1080.217896,514.442017 1080.012085,525.430725 
	C1079.788086,537.403015 1079.411377,549.372375 1079.096191,561.342957 
	C1078.700562,576.369812 1063.566162,581.334839 1053.572754,579.804871 
	C1042.018799,578.035950 1034.592163,566.130981 1034.356079,556.771118 
	C1033.826904,535.800293 1034.074219,514.809753 1034.006714,493.827240 
	C1034.000977,492.040619 1034.005981,490.253937 1034.005981,488.398804 
	C1027.669312,488.398804 1021.800171,488.398804 1015.076050,488.398804 
	C1015.076050,499.233704 1014.882751,509.704529 1015.120544,520.165527 
	C1015.496582,536.706421 1013.287292,553.366760 1018.681152,569.659424 
	C1022.513245,581.234619 1027.247070,590.633240 1040.833740,593.649475 
	C1053.369263,596.432312 1065.386841,597.596863 1077.482910,592.717712 
	C1080.201294,591.621155 1083.665771,590.913269 1085.305786,588.849609 
	C1093.701416,578.284668 1099.859131,566.748291 1099.567383,552.582825 
	C1099.255249,537.433594 1099.416504,522.274414 1099.382202,507.119598 
	C1099.367310,500.539581 1099.379639,493.959534 1099.379639,487.133667 
	C1093.282349,487.467896 1088.473755,487.731476 1082.772461,488.012054 
M870.731689,511.853943 
	C874.801819,517.009216 875.350464,522.990967 872.035400,528.173706 
	C867.718872,534.921936 862.393127,541.082581 857.067505,547.112671 
	C850.488708,554.561768 843.428345,561.583862 836.651428,568.860657 
	C834.299011,571.386597 832.513672,574.543762 829.877075,576.682373 
	C822.147827,582.951843 821.081970,585.649414 823.636902,595.145996 
	C847.411926,595.145996 871.109375,595.145996 894.671631,595.145996 
	C894.671631,589.617737 894.671631,584.685669 894.671631,579.049805 
	C880.390869,579.049805 866.432251,579.049805 851.869812,579.049805 
	C862.752563,566.233521 872.873779,554.021606 883.357910,542.129578 
	C886.913574,538.096558 888.805237,533.856934 889.799377,528.573914 
	C892.665405,513.343994 888.125793,501.043121 876.060181,491.698822 
	C869.210571,486.394135 860.661133,486.439758 852.591248,487.001038 
	C847.312683,487.368164 841.735352,488.979218 837.100647,491.512695 
	C832.430542,494.065460 828.357422,498.100983 824.841492,502.190765 
	C823.345215,503.931213 822.716919,508.215881 823.834229,510.015839 
	C825.905579,513.352783 829.550171,515.713196 833.317932,519.200623 
	C834.870117,511.089020 841.047791,510.304779 846.326416,508.151093 
	C854.941711,504.636017 862.891357,505.374573 870.731689,511.853943 
M668.024048,528.500183 
	C668.024048,550.591492 668.024048,572.682800 668.024048,595.054749 
	C675.626770,595.473816 682.019470,595.826233 688.981812,596.210022 
	C688.981812,566.452637 688.981812,537.392700 688.981812,507.503296 
	C699.881348,507.503296 710.262756,507.503296 720.440918,507.503296 
	C720.440918,500.584198 720.440918,494.509521 720.440918,488.156281 
	C717.548767,488.156281 715.063599,488.152344 712.578430,488.156921 
	C689.582092,488.199310 666.584839,488.357361 643.590088,488.187744 
	C639.122070,488.154785 637.689331,489.598816 637.981995,493.893677 
	C638.274780,498.189636 638.046265,502.521088 638.046265,507.719604 
	C648.068787,507.719604 657.806641,507.719604 668.021362,507.719604 
	C668.021362,514.899597 668.021362,521.200012 668.024048,528.500183 
M567.940735,537.497803 
	C571.691772,543.290344 577.283875,548.096252 577.971497,555.543579 
	C578.475586,561.002930 578.906494,566.482117 579.031921,571.960205 
	C579.209900,579.733154 579.077087,587.513245 579.077087,595.655762 
	C585.792297,595.655762 591.841919,595.655762 598.058044,595.655762 
	C598.058044,589.317322 598.359131,583.161804 597.997253,577.045532 
	C597.169250,563.052002 599.695679,550.406311 608.089172,538.495056 
	C616.371338,526.741821 622.947998,513.769348 630.012085,501.185455 
	C632.220398,497.251740 633.581970,492.842712 635.544067,488.140961 
	C630.210632,488.140961 625.859985,488.447113 621.575195,488.047607 
	C617.910583,487.705902 616.030396,489.364532 614.606323,492.298615 
	C612.245361,497.162994 610.003174,502.096436 607.395203,506.826752 
	C603.882996,513.197144 600.016663,519.371216 596.406494,525.689026 
	C593.836365,530.186707 591.437927,534.782471 588.928101,539.398376 
	C587.752991,538.652954 587.360474,538.547729 587.238464,538.305969 
	C579.474182,522.916626 571.798218,507.481964 563.905884,492.158691 
	C562.886719,490.179962 560.923218,487.582703 559.110901,487.330780 
	C554.259338,486.656342 549.252258,487.100891 542.526245,487.100891 
	C544.528503,492.472351 545.582703,496.590179 547.513489,500.244873 
	C554.014526,512.550354 560.827454,524.691162 567.940735,537.497803 
M1190.399170,541.498840 
	C1190.399170,523.584106 1190.399170,505.669312 1190.399170,487.891815 
	C1183.603760,487.891815 1177.874146,487.891815 1171.752686,487.891815 
	C1171.752686,523.951782 1171.752686,559.494202 1171.752686,594.306641 
	C1194.875366,594.306641 1217.254272,594.306641 1239.646729,594.306641 
	C1239.646729,588.743774 1239.646729,584.190002 1239.646729,578.992676 
	C1223.200562,578.992676 1207.109131,578.992676 1190.394653,578.992676 
	C1190.394653,566.398865 1190.394653,554.448853 1190.399170,541.498840 
M1126.013428,540.500000 
	C1126.013428,558.249756 1126.013428,575.999512 1126.013428,593.805969 
	C1132.637329,593.805969 1138.553833,593.805969 1144.619629,593.805969 
	C1144.619629,558.520203 1144.619629,523.509949 1144.619629,488.423157 
	C1138.339233,488.423157 1132.420654,488.423157 1126.013428,488.423157 
	C1126.013428,505.621368 1126.013428,522.560669 1126.013428,540.500000 
M284.757324,120.823761 
	C285.373291,121.463791 285.985199,122.657967 286.605865,122.662544 
	C300.881195,122.767952 315.157501,122.743858 330.298126,122.743858 
	C321.378113,99.068810 315.830139,75.667938 306.278625,53.384274 
	C303.853577,57.244198 302.192719,60.969822 301.041992,64.846848 
	C298.831787,72.293205 297.028168,79.859818 294.842163,87.313873 
	C291.633820,98.254196 288.237854,109.139511 284.757324,120.823761 
z"/>
<path fill="#1663B1" opacity="1.000000" stroke="none" 
	d="
M302.210785,763.464050 
	C302.218658,765.391113 302.218658,766.874390 302.218658,768.706055 
	C296.522461,768.706055 290.953644,768.706055 284.780365,768.706055 
	C284.780365,715.655701 284.780365,662.624634 284.780365,609.697754 
	C276.144012,608.279968 275.829224,608.501526 275.770020,616.125854 
	C275.535828,646.282349 275.325592,676.439026 275.087708,706.595459 
	C275.074921,708.216919 274.891357,709.836975 274.777802,711.605591 
	C268.713776,711.605591 262.944885,711.605591 256.437103,711.605591 
	C256.437103,709.574463 256.431213,707.818787 256.438019,706.063110 
	C256.503418,689.231628 256.513031,672.399536 256.670258,655.568909 
	C256.723297,649.890503 254.907455,645.092346 252.128952,640.098999 
	C243.160126,623.980713 234.592148,607.627563 226.285156,591.155396 
	C212.505234,563.830994 199.097870,536.318848 185.424484,508.940277 
	C181.491409,501.064941 177.045532,493.446594 173.071548,485.590668 
	C154.218842,448.321869 135.521484,410.974396 116.614906,373.733063 
	C108.035606,356.833862 98.953636,340.189850 90.375404,323.290131 
	C84.506386,311.727783 79.103653,299.928436 73.528946,288.217651 
	C73.127350,287.374023 73.024445,286.388184 72.720345,285.231415 
	C73.816116,285.099518 74.609451,284.915009 75.401207,284.921600 
	C104.226318,285.161591 133.051773,285.383698 161.874695,285.786102 
	C163.228928,285.804993 165.173386,287.138092 165.808792,288.385834 
	C173.046875,302.599426 180.056580,316.929108 187.179626,331.201630 
	C203.224274,363.350433 219.148361,395.560699 235.409622,427.599701 
	C247.683502,451.782501 260.490112,475.694611 272.828339,499.845398 
	C274.578156,503.270508 275.854187,507.350067 275.924683,511.153137 
	C276.347595,533.977600 276.354645,556.809753 276.498596,579.639343 
	C276.508911,581.276611 276.499939,582.913940 276.499939,584.908813 
	C279.301666,584.908813 281.738129,584.908813 284.693726,584.908813 
	C284.693726,432.114868 284.693726,279.095947 284.693726,125.982132 
	C290.332977,125.982132 295.380524,125.982132 301.449219,125.982132 
	C301.449219,279.181488 301.449219,431.922302 301.449219,584.976562 
	C305.061432,584.976562 307.663422,584.976562 310.643677,584.976562 
	C310.643677,432.095673 310.643677,279.064362 310.643677,125.565933 
	C316.901031,125.565933 322.812256,125.565933 329.517883,125.565933 
	C329.517883,245.788254 329.517883,366.195953 329.517883,487.363922 
	C336.192627,487.363922 342.102020,487.339447 348.011108,487.369385 
	C358.105896,487.420502 367.667511,489.474762 377.132019,493.284027 
	C390.199890,498.543579 397.665283,508.219757 403.113373,520.660645 
	C411.612885,540.069458 409.355042,558.919189 401.443237,577.609070 
	C400.083649,580.820862 397.108154,583.432007 394.594666,586.047119 
	C392.329620,588.403809 389.674469,590.385559 386.814575,592.858582 
	C388.862335,594.416626 390.458923,595.835815 392.242859,596.956665 
	C407.822418,606.745728 415.622345,621.366211 418.998383,638.995911 
	C422.885315,659.293396 415.508667,676.509033 405.110657,693.080994 
	C402.724701,696.883728 399.530090,699.158630 395.611542,701.329346 
	C380.504944,709.697937 364.390533,712.128662 347.440552,711.149048 
	C341.819977,710.824097 336.164825,711.097778 329.958069,711.097778 
	C329.958069,730.452637 329.958069,749.498840 329.958069,768.796875 
	C323.465118,768.796875 317.541199,768.796875 310.731384,768.796875 
	C310.731384,715.396118 310.731384,662.020569 310.731384,608.815430 
	C305.165375,606.959229 303.079681,609.391113 302.171722,613.556213 
	C301.962067,614.517883 302.012543,615.545349 302.013733,616.542480 
	C302.071960,665.368408 302.137848,714.194336 302.210785,763.464050 
M211.146713,516.295715 
	C225.926025,545.543213 240.705338,574.790771 255.484650,604.038269 
	C256.648865,601.843506 256.862976,599.921143 256.874054,597.997620 
	C257.007477,574.838806 256.849365,551.674255 257.334595,528.523193 
	C257.569580,517.310913 256.169464,506.978302 248.349701,498.307281 
	C247.265106,497.104584 246.638306,495.466217 245.895386,493.981628 
	C235.621078,473.450684 225.424210,452.880707 215.075226,432.387512 
	C210.221375,422.775879 204.914642,413.391663 200.120636,403.751465 
	C195.532730,394.525757 191.448166,385.051117 186.957870,375.775208 
	C176.109299,353.364594 163.478943,331.804352 154.855682,308.321594 
	C154.419357,307.133392 152.207367,305.876617 150.817322,305.871124 
	C137.490662,305.818512 124.162651,306.005310 110.835945,306.189697 
	C108.956726,306.215729 107.082436,306.597748 104.746300,306.868164 
	C117.802101,332.444336 130.576508,357.269257 143.158752,382.191254 
	C150.952789,397.629120 158.428345,413.227478 166.096741,428.729156 
	C171.994766,440.652039 177.828278,452.610138 183.945663,464.420410 
	C192.811386,481.536682 201.907364,498.533722 211.146713,516.295715 
M377.544434,612.813477 
	C362.194733,607.151672 346.349640,607.328552 329.778931,608.503967 
	C329.778931,635.162292 329.778931,661.512695 329.778931,687.985046 
	C341.495270,687.985046 353.194885,688.926208 364.683167,687.769287 
	C382.904205,685.934326 393.340454,675.200195 397.163330,657.090271 
	C399.397308,646.507629 395.392059,637.211487 392.130341,627.610474 
	C389.696594,620.446655 385.419525,615.514465 377.544434,612.813477 
M354.960480,509.367889 
	C346.724823,509.367889 338.489197,509.367889 329.716095,509.367889 
	C329.716095,535.278625 329.716095,560.325439 329.716095,585.162170 
	C340.108185,585.162170 350.583740,586.389038 360.575378,584.719604 
	C366.957092,583.653198 374.963470,579.733521 378.118988,574.572571 
	C384.541901,564.067566 388.928650,551.955200 385.803711,538.925171 
	C382.627899,525.682983 377.744568,513.715515 362.200256,510.762848 
	C360.079193,510.359955 357.966736,509.911743 354.960480,509.367889 
z"/>
<path fill="#1663B1" opacity="1.000000" stroke="none" 
	d="
M423.333313,474.424377 
	C422.845581,473.067780 422.222595,471.702789 422.608948,470.744812 
	C425.772980,462.899139 428.755341,454.946930 432.492706,447.372406 
	C441.890442,428.326172 451.505737,409.383179 461.321899,390.548920 
	C468.473297,376.827637 476.338165,363.476471 483.415466,349.718811 
	C490.029449,336.861725 496.034943,323.691284 502.277130,310.643921 
	C502.898712,309.344757 503.304047,307.942108 504.002502,306.071136 
	C488.707245,306.071136 473.922272,305.974854 459.143311,306.229431 
	C457.761322,306.253265 455.906403,308.235077 455.139099,309.747986 
	C450.249207,319.390015 445.658447,329.182983 440.866791,338.875641 
	C419.781189,381.527740 398.674377,424.169403 377.531189,466.792938 
	C375.477753,470.932556 373.120850,474.921600 370.663300,479.422852 
	C365.628967,476.612457 360.940582,474.150818 356.465881,471.348053 
	C355.696716,470.866272 355.290405,468.744659 355.648834,467.700653 
	C357.534576,462.208374 359.316681,456.620697 361.870392,451.427917 
	C372.950989,428.896454 384.237579,406.465729 395.542877,384.045532 
	C409.297516,356.767944 423.147064,329.538147 436.951599,302.285706 
	C437.627777,300.950836 438.271118,299.599182 438.922302,298.251801 
	C442.932526,289.954102 448.037964,284.944458 458.767853,285.284515 
	C484.221405,286.091217 509.724426,285.335052 535.207520,285.224243 
	C535.826355,285.221527 536.445923,285.379578 536.968933,285.449738 
	C503.946472,350.986084 470.999023,416.373596 437.705505,482.447845 
	C432.825684,479.721771 428.245697,477.163177 423.333313,474.424377 
z"/>
<path fill="#1864B2" opacity="1.000000" stroke="none" 
	d="
M464.080139,595.341370 
	C461.117340,595.343018 458.642334,595.343018 455.870544,595.343018 
	C455.870544,559.839294 455.870544,524.303528 455.870544,488.377380 
	C457.912598,488.275177 459.521362,488.119324 461.129425,488.125977 
	C474.780090,488.182404 488.438782,488.584595 502.078369,488.234161 
	C511.122864,488.001831 517.565247,491.888794 524.041138,497.753174 
	C533.831238,506.618652 534.789795,517.334106 531.778503,528.703186 
	C530.639771,533.002197 526.349854,536.466492 523.237793,540.659729 
	C523.148193,540.580566 523.742371,541.473206 524.553955,541.768677 
	C540.808044,547.687500 541.069946,576.467712 531.130066,587.853516 
	C529.345581,589.897644 526.273804,591.191528 523.549866,591.981934 
	C504.168427,597.605713 484.336945,596.058716 464.080139,595.341370 
M519.166260,557.876160 
	C515.713684,555.403931 512.475952,551.249512 508.768097,550.776001 
	C497.802521,549.375610 486.651215,549.429199 475.134644,548.893799 
	C475.134644,559.952087 475.134644,569.833374 475.134644,579.257874 
	C485.896698,579.257874 496.211304,579.864014 506.418884,579.078613 
	C515.660706,578.367432 519.958252,572.967285 520.260010,563.982544 
	C520.320312,562.187988 519.822571,560.374695 519.166260,557.876160 
M479.641113,535.854736 
	C488.264465,535.446655 496.893341,535.121338 505.505920,534.550964 
	C506.981964,534.453186 509.197937,533.670837 509.682190,532.584900 
	C511.423431,528.680298 513.073303,524.600403 513.822510,520.419189 
	C514.965881,514.038025 511.339050,508.468811 504.889771,507.747559 
	C495.079010,506.650482 485.146240,506.644684 474.645142,506.145966 
	C474.645142,514.868042 474.644043,522.470032 474.646271,530.071960 
	C474.646606,531.236023 474.196930,532.800720 474.776123,533.473450 
	C475.722595,534.572693 477.343964,535.090820 479.641113,535.854736 
z"/>
<path fill="#1764B1" opacity="1.000000" stroke="none" 
	d="
M992.213501,551.793518 
	C995.487732,557.876160 998.875183,563.912781 997.100098,570.502441 
	C995.584412,576.129211 992.282532,581.270447 989.815369,586.646912 
	C988.160400,590.253662 985.555847,591.535889 981.481384,592.404297 
	C963.201477,596.300598 944.789185,595.849976 926.329834,595.365601 
	C922.868835,595.274780 919.403503,595.352661 915.486572,595.352661 
	C915.486572,559.500549 915.486572,524.148926 915.486572,488.027100 
	C917.849915,488.027100 920.113708,488.018005 922.377441,488.028564 
	C935.526794,488.089813 948.685974,488.505402 961.823120,488.135498 
	C980.154846,487.619293 994.414246,506.073914 990.764832,524.503357 
	C989.463806,531.073364 987.458069,536.998047 981.672180,539.659424 
	C985.248291,543.733887 988.642334,547.601013 992.213501,551.793518 
M963.411926,579.198425 
	C967.416382,577.496521 972.816223,576.885254 975.160522,573.885864 
	C981.875732,565.293945 976.140442,551.191711 965.327454,549.998352 
	C955.203857,548.880981 944.860046,549.759277 934.360657,549.759277 
	C934.360657,559.750916 934.360657,569.600403 934.360657,579.250244 
	C943.995850,579.250244 953.267700,579.250244 963.411926,579.198425 
M973.720886,521.828430 
	C973.730225,519.998413 973.721375,518.168091 973.753113,516.338440 
	C973.801697,513.539246 973.378662,511.246704 970.271729,509.918823 
	C958.667847,504.959381 946.688660,505.318054 934.394104,506.462341 
	C934.394104,516.661072 934.394104,526.361572 934.394104,536.136169 
	C943.777222,536.136169 952.766968,536.171875 961.755615,536.088623 
	C962.818665,536.078796 964.311584,535.742126 964.862854,535.003113 
	C967.868652,530.973206 970.641968,526.769958 973.720886,521.828430 
z"/>
<path fill="#1764B1" opacity="1.000000" stroke="none" 
	d="
M1341.740967,568.901611 
	C1334.926025,580.759399 1327.801758,590.665833 1312.554199,592.627014 
	C1296.110107,594.742065 1279.783203,595.654114 1263.294922,595.029602 
	C1260.990479,594.942322 1258.697021,594.559875 1255.710449,594.240479 
	C1255.710449,558.999451 1255.710449,523.953735 1255.710449,488.369171 
	C1261.094849,488.369171 1266.718506,488.367920 1272.342163,488.369446 
	C1280.005615,488.371521 1287.698853,488.807068 1295.325928,488.282257 
	C1308.127563,487.401520 1317.925537,493.342957 1328.126953,500.065613 
	C1349.036499,513.844666 1352.761230,550.122131 1341.740967,568.901611 
M1271.680298,523.500977 
	C1271.756592,527.162842 1271.879272,530.824463 1271.900757,534.486633 
	C1271.975708,547.305847 1272.005005,560.125305 1272.076904,572.944519 
	C1272.094849,576.137817 1272.579224,579.160950 1276.724854,579.205505 
	C1284.367432,579.287659 1292.030518,579.578674 1299.651001,579.161621 
	C1316.465576,578.241150 1325.946411,567.513794 1329.569458,553.920715 
	C1332.792969,541.827637 1329.522705,530.174744 1324.311157,519.182556 
	C1322.327637,514.998413 1319.041992,511.780609 1314.298706,510.099426 
	C1300.616333,505.249908 1286.682251,504.935699 1271.684692,506.960480 
	C1271.684692,512.228760 1271.684692,517.365173 1271.680298,523.500977 
z"/>
<path fill="#1865B2" opacity="1.000000" stroke="none" 
	d="
M740.286499,488.369812 
	C762.559937,488.366547 784.366150,488.366547 806.592773,488.366547 
	C806.592773,494.598938 806.592773,500.954865 806.592773,507.591125 
	C789.599548,507.591125 772.673096,507.591125 755.356262,507.591125 
	C755.356262,516.758484 755.356262,525.784241 755.356262,535.225464 
	C770.190369,535.225464 784.943787,535.225464 800.078369,535.225464 
	C800.078369,540.352966 800.078369,545.079224 800.078369,550.240479 
	C785.246155,550.240479 770.484070,550.240479 755.345215,550.240479 
	C755.345215,560.030701 755.345215,569.404236 755.345215,579.276062 
	C773.412170,579.276062 791.455261,579.276062 809.750000,579.276062 
	C809.750000,585.004883 809.750000,590.240723 809.750000,595.777222 
	C785.118774,595.777222 760.718445,595.777222 735.113525,595.777222 
	C735.113525,560.121704 735.113525,524.488464 735.113525,488.596039 
	C736.873657,488.512665 738.346436,488.442871 740.286499,488.369812 
z"/>
<path fill="#1663B1" opacity="1.000000" stroke="none" 
	d="
M1083.218750,488.003540 
	C1088.473755,487.731476 1093.282349,487.467896 1099.379639,487.133667 
	C1099.379639,493.959534 1099.367310,500.539581 1099.382202,507.119598 
	C1099.416504,522.274414 1099.255249,537.433594 1099.567383,552.582825 
	C1099.859131,566.748291 1093.701416,578.284668 1085.305786,588.849609 
	C1083.665771,590.913269 1080.201294,591.621155 1077.482910,592.717712 
	C1065.386841,597.596863 1053.369263,596.432312 1040.833740,593.649475 
	C1027.247070,590.633240 1022.513245,581.234619 1018.681152,569.659424 
	C1013.287292,553.366760 1015.496582,536.706421 1015.120544,520.165527 
	C1014.882751,509.704529 1015.076050,499.233704 1015.076050,488.398804 
	C1021.800171,488.398804 1027.669312,488.398804 1034.005981,488.398804 
	C1034.005981,490.253937 1034.000977,492.040619 1034.006714,493.827240 
	C1034.074219,514.809753 1033.826904,535.800293 1034.356079,556.771118 
	C1034.592163,566.130981 1042.018799,578.035950 1053.572754,579.804871 
	C1063.566162,581.334839 1078.700562,576.369812 1079.096191,561.342957 
	C1079.411377,549.372375 1079.788086,537.403015 1080.012085,525.430725 
	C1080.217896,514.442017 1080.166382,503.447693 1080.472778,492.462677 
	C1080.514771,490.958923 1081.970947,489.494598 1083.218750,488.003540 
z"/>
<path fill="#1864B2" opacity="1.000000" stroke="none" 
	d="
M870.471680,511.575378 
	C862.891357,505.374573 854.941711,504.636017 846.326416,508.151093 
	C841.047791,510.304779 834.870117,511.089020 833.317932,519.200623 
	C829.550171,515.713196 825.905579,513.352783 823.834229,510.015839 
	C822.716919,508.215881 823.345215,503.931213 824.841492,502.190765 
	C828.357422,498.100983 832.430542,494.065460 837.100647,491.512695 
	C841.735352,488.979218 847.312683,487.368164 852.591248,487.001038 
	C860.661133,486.439758 869.210571,486.394135 876.060181,491.698822 
	C888.125793,501.043121 892.665405,513.343994 889.799377,528.573914 
	C888.805237,533.856934 886.913574,538.096558 883.357910,542.129578 
	C872.873779,554.021606 862.752563,566.233521 851.869812,579.049805 
	C866.432251,579.049805 880.390869,579.049805 894.671631,579.049805 
	C894.671631,584.685669 894.671631,589.617737 894.671631,595.145996 
	C871.109375,595.145996 847.411926,595.145996 823.636902,595.145996 
	C821.081970,585.649414 822.147827,582.951843 829.877075,576.682373 
	C832.513672,574.543762 834.299011,571.386597 836.651428,568.860657 
	C843.428345,561.583862 850.488708,554.561768 857.067505,547.112671 
	C862.393127,541.082581 867.718872,534.921936 872.035400,528.173706 
	C875.350464,522.990967 874.801819,517.009216 870.471680,511.575378 
z"/>
<path fill="#1764B1" opacity="1.000000" stroke="none" 
	d="
M668.022705,528.000305 
	C668.021362,521.200012 668.021362,514.899597 668.021362,507.719604 
	C657.806641,507.719604 648.068787,507.719604 638.046265,507.719604 
	C638.046265,502.521088 638.274780,498.189636 637.981995,493.893677 
	C637.689331,489.598816 639.122070,488.154785 643.590088,488.187744 
	C666.584839,488.357361 689.582092,488.199310 712.578430,488.156921 
	C715.063599,488.152344 717.548767,488.156281 720.440918,488.156281 
	C720.440918,494.509521 720.440918,500.584198 720.440918,507.503296 
	C710.262756,507.503296 699.881348,507.503296 688.981812,507.503296 
	C688.981812,537.392700 688.981812,566.452637 688.981812,596.210022 
	C682.019470,595.826233 675.626770,595.473816 668.024048,595.054749 
	C668.024048,572.682800 668.024048,550.591492 668.022705,528.000305 
z"/>
<path fill="#1764B1" opacity="1.000000" stroke="none" 
	d="
M567.730896,537.196411 
	C560.827454,524.691162 554.014526,512.550354 547.513489,500.244873 
	C545.582703,496.590179 544.528503,492.472351 542.526245,487.100891 
	C549.252258,487.100891 554.259338,486.656342 559.110901,487.330780 
	C560.923218,487.582703 562.886719,490.179962 563.905884,492.158691 
	C571.798218,507.481964 579.474182,522.916626 587.238464,538.305969 
	C587.360474,538.547729 587.752991,538.652954 588.928101,539.398376 
	C591.437927,534.782471 593.836365,530.186707 596.406494,525.689026 
	C600.016663,519.371216 603.882996,513.197144 607.395203,506.826752 
	C610.003174,502.096436 612.245361,497.162994 614.606323,492.298615 
	C616.030396,489.364532 617.910583,487.705902 621.575195,488.047607 
	C625.859985,488.447113 630.210632,488.140961 635.544067,488.140961 
	C633.581970,492.842712 632.220398,497.251740 630.012085,501.185455 
	C622.947998,513.769348 616.371338,526.741821 608.089172,538.495056 
	C599.695679,550.406311 597.169250,563.052002 597.997253,577.045532 
	C598.359131,583.161804 598.058044,589.317322 598.058044,595.655762 
	C591.841919,595.655762 585.792297,595.655762 579.077087,595.655762 
	C579.077087,587.513245 579.209900,579.733154 579.031921,571.960205 
	C578.906494,566.482117 578.475586,561.002930 577.971497,555.543579 
	C577.283875,548.096252 571.691772,543.290344 567.730896,537.196411 
z"/>
<path fill="#1663B1" opacity="1.000000" stroke="none" 
	d="
M1190.396973,541.998840 
	C1190.394653,554.448853 1190.394653,566.398865 1190.394653,578.992676 
	C1207.109131,578.992676 1223.200562,578.992676 1239.646729,578.992676 
	C1239.646729,584.190002 1239.646729,588.743774 1239.646729,594.306641 
	C1217.254272,594.306641 1194.875366,594.306641 1171.752686,594.306641 
	C1171.752686,559.494202 1171.752686,523.951782 1171.752686,487.891815 
	C1177.874146,487.891815 1183.603760,487.891815 1190.399170,487.891815 
	C1190.399170,505.669312 1190.399170,523.584106 1190.396973,541.998840 
z"/>
<path fill="#1663B1" opacity="1.000000" stroke="none" 
	d="
M1126.013428,540.000000 
	C1126.013428,522.560669 1126.013428,505.621368 1126.013428,488.423157 
	C1132.420654,488.423157 1138.339233,488.423157 1144.619629,488.423157 
	C1144.619629,523.509949 1144.619629,558.520203 1144.619629,593.805969 
	C1138.553833,593.805969 1132.637329,593.805969 1126.013428,593.805969 
	C1126.013428,575.999512 1126.013428,558.249756 1126.013428,540.000000 
z"/>
<path fill="#1B67B3" opacity="1.000000" stroke="none" 
	d="
M284.839569,120.436005 
	C288.237854,109.139511 291.633820,98.254196 294.842163,87.313873 
	C297.028168,79.859818 298.831787,72.293205 301.041992,64.846848 
	C302.192719,60.969822 303.853577,57.244198 306.278625,53.384274 
	C315.830139,75.667938 321.378113,99.068810 330.298126,122.743858 
	C315.157501,122.743858 300.881195,122.767952 286.605865,122.662544 
	C285.985199,122.657967 285.373291,121.463791 284.839569,120.436005 
M294.501892,112.376114 
	C302.906799,112.376114 311.311676,112.376114 320.213470,112.376114 
	C316.534271,100.920212 312.957916,89.784584 309.380035,78.644142 
	C304.206512,80.250572 301.170593,83.787140 299.961456,89.427223 
	C298.364349,96.877182 296.182587,104.201797 294.501892,112.376114 
z"/>
<path fill="#FAFBFB" opacity="1.000000" stroke="none" 
	d="
M211.025925,515.938660 
	C201.907364,498.533722 192.811386,481.536682 183.945663,464.420410 
	C177.828278,452.610138 171.994766,440.652039 166.096741,428.729156 
	C158.428345,413.227478 150.952789,397.629120 143.158752,382.191254 
	C130.576508,357.269257 117.802101,332.444336 104.746300,306.868164 
	C107.082436,306.597748 108.956726,306.215729 110.835945,306.189697 
	C124.162651,306.005310 137.490662,305.818512 150.817322,305.871124 
	C152.207367,305.876617 154.419357,307.133392 154.855682,308.321594 
	C163.478943,331.804352 176.109299,353.364594 186.957870,375.775208 
	C191.448166,385.051117 195.532730,394.525757 200.120636,403.751465 
	C204.914642,413.391663 210.221375,422.775879 215.075226,432.387512 
	C225.424210,452.880707 235.621078,473.450684 245.895386,493.981628 
	C246.638306,495.466217 247.265106,497.104584 248.349701,498.307281 
	C256.169464,506.978302 257.569580,517.310913 257.334595,528.523193 
	C256.849365,551.674255 257.007477,574.838806 256.874054,597.997620 
	C256.862976,599.921143 256.648865,601.843506 255.484650,604.038269 
	C240.705338,574.790771 225.926025,545.543213 211.025925,515.938660 
z"/>
<path fill="#FAFAFB" opacity="1.000000" stroke="none" 
	d="
M377.893372,612.970581 
	C385.419525,615.514465 389.696594,620.446655 392.130341,627.610474 
	C395.392059,637.211487 399.397308,646.507629 397.163330,657.090271 
	C393.340454,675.200195 382.904205,685.934326 364.683167,687.769287 
	C353.194885,688.926208 341.495270,687.985046 329.778931,687.985046 
	C329.778931,661.512695 329.778931,635.162292 329.778931,608.503967 
	C346.349640,607.328552 362.194733,607.151672 377.893372,612.970581 
z"/>
<path fill="#F9FAFB" opacity="1.000000" stroke="none" 
	d="
M355.405396,509.426208 
	C357.966736,509.911743 360.079193,510.359955 362.200256,510.762848 
	C377.744568,513.715515 382.627899,525.682983 385.803711,538.925171 
	C388.928650,551.955200 384.541901,564.067566 378.118988,574.572571 
	C374.963470,579.733521 366.957092,583.653198 360.575378,584.719604 
	C350.583740,586.389038 340.108185,585.162170 329.716095,585.162170 
	C329.716095,560.325439 329.716095,535.278625 329.716095,509.367889 
	C338.489197,509.367889 346.724823,509.367889 355.405396,509.426208 
z"/>
<path fill="#F8F9FB" opacity="1.000000" stroke="none" 
	d="
M519.374207,558.223083 
	C519.822571,560.374695 520.320312,562.187988 520.260010,563.982544 
	C519.958252,572.967285 515.660706,578.367432 506.418884,579.078613 
	C496.211304,579.864014 485.896698,579.257874 475.134644,579.257874 
	C475.134644,569.833374 475.134644,559.952087 475.134644,548.893799 
	C486.651215,549.429199 497.802521,549.375610 508.768097,550.776001 
	C512.475952,551.249512 515.713684,555.403931 519.374207,558.223083 
z"/>
<path fill="#F8F9FB" opacity="1.000000" stroke="none" 
	d="
M479.160828,535.854431 
	C477.343964,535.090820 475.722595,534.572693 474.776123,533.473450 
	C474.196930,532.800720 474.646606,531.236023 474.646271,530.071960 
	C474.644043,522.470032 474.645142,514.868042 474.645142,506.145966 
	C485.146240,506.644684 495.079010,506.650482 504.889771,507.747559 
	C511.339050,508.468811 514.965881,514.038025 513.822510,520.419189 
	C513.073303,524.600403 511.423431,528.680298 509.682190,532.584900 
	C509.197937,533.670837 506.981964,534.453186 505.505920,534.550964 
	C496.893341,535.121338 488.264465,535.446655 479.160828,535.854431 
z"/>
<path fill="#F8F9FB" opacity="1.000000" stroke="none" 
	d="
M962.975708,579.224365 
	C953.267700,579.250244 943.995850,579.250244 934.360657,579.250244 
	C934.360657,569.600403 934.360657,559.750916 934.360657,549.759277 
	C944.860046,549.759277 955.203857,548.880981 965.327454,549.998352 
	C976.140442,551.191711 981.875732,565.293945 975.160522,573.885864 
	C972.816223,576.885254 967.416382,577.496521 962.975708,579.224365 
z"/>
<path fill="#F8F9FB" opacity="1.000000" stroke="none" 
	d="
M973.608093,522.227417 
	C970.641968,526.769958 967.868652,530.973206 964.862854,535.003113 
	C964.311584,535.742126 962.818665,536.078796 961.755615,536.088623 
	C952.766968,536.171875 943.777222,536.136169 934.394104,536.136169 
	C934.394104,526.361572 934.394104,516.661072 934.394104,506.462341 
	C946.688660,505.318054 958.667847,504.959381 970.271729,509.918823 
	C973.378662,511.246704 973.801697,513.539246 973.753113,516.338440 
	C973.721375,518.168091 973.730225,519.998413 973.608093,522.227417 
z"/>
<path fill="#FAFBFB" opacity="1.000000" stroke="none" 
	d="
M1271.682495,523.001282 
	C1271.684692,517.365173 1271.684692,512.228760 1271.684692,506.960480 
	C1286.682251,504.935699 1300.616333,505.249908 1314.298706,510.099426 
	C1319.041992,511.780609 1322.327637,514.998413 1324.311157,519.182556 
	C1329.522705,530.174744 1332.792969,541.827637 1329.569458,553.920715 
	C1325.946411,567.513794 1316.465576,578.241150 1299.651001,579.161621 
	C1292.030518,579.578674 1284.367432,579.287659 1276.724854,579.205505 
	C1272.579224,579.160950 1272.094849,576.137817 1272.076904,572.944519 
	C1272.005005,560.125305 1271.975708,547.305847 1271.900757,534.486633 
	C1271.879272,530.824463 1271.756592,527.162842 1271.682495,523.001282 
z"/>
<path fill="#F4F7F9" opacity="1.000000" stroke="none" 
	d="
M294.377014,111.978195 
	C296.182587,104.201797 298.364349,96.877182 299.961456,89.427223 
	C301.170593,83.787140 304.206512,80.250572 309.380035,78.644142 
	C312.957916,89.784584 316.534271,100.920212 320.213470,112.376114 
	C311.311676,112.376114 302.906799,112.376114 294.377014,111.978195 
z"/>
</svg>